<mxfile host="app.diagrams.net" modified="2023-04-08T22:11:51.277Z" agent="Mozilla/5.0 (Windows NT 10.0; Win64; x64) AppleWebKit/537.36 (KHTML, like Gecko) Chrome/112.0.0.0 Safari/537.36" etag="ULU4DdzoBEjqI5NiRaDw" version="21.1.5" type="device">
  <diagram name="Page-1" id="dIVlRM0FUi2KP0AZjJBj">
    <mxGraphModel dx="1323" dy="753" grid="1" gridSize="10" guides="1" tooltips="1" connect="1" arrows="1" fold="1" page="1" pageScale="1" pageWidth="850" pageHeight="1100" math="0" shadow="0">
      <root>
        <mxCell id="0" />
        <mxCell id="1" parent="0" />
        <mxCell id="vrUg6nh2y9T_X38d_DYT-86" style="edgeStyle=orthogonalEdgeStyle;rounded=0;orthogonalLoop=1;jettySize=auto;html=1;entryX=0.5;entryY=0;entryDx=0;entryDy=0;endArrow=none;endFill=0;" parent="1" source="vrUg6nh2y9T_X38d_DYT-1" target="vrUg6nh2y9T_X38d_DYT-5" edge="1">
          <mxGeometry relative="1" as="geometry">
            <Array as="points">
              <mxPoint x="235" y="120" />
            </Array>
            <mxPoint x="150" y="180" as="targetPoint" />
          </mxGeometry>
        </mxCell>
        <mxCell id="hLTtuCUK-SJfxm-clQ0Y-6" style="edgeStyle=orthogonalEdgeStyle;rounded=0;orthogonalLoop=1;jettySize=auto;html=1;entryX=0.5;entryY=0;entryDx=0;entryDy=0;endArrow=none;endFill=0;" edge="1" parent="1" source="vrUg6nh2y9T_X38d_DYT-1" target="vrUg6nh2y9T_X38d_DYT-3">
          <mxGeometry relative="1" as="geometry" />
        </mxCell>
        <mxCell id="hLTtuCUK-SJfxm-clQ0Y-7" style="edgeStyle=orthogonalEdgeStyle;rounded=0;orthogonalLoop=1;jettySize=auto;html=1;endArrow=none;endFill=0;" edge="1" parent="1" source="vrUg6nh2y9T_X38d_DYT-1" target="vrUg6nh2y9T_X38d_DYT-4">
          <mxGeometry relative="1" as="geometry">
            <Array as="points">
              <mxPoint x="465" y="50" />
              <mxPoint x="65" y="50" />
            </Array>
          </mxGeometry>
        </mxCell>
        <mxCell id="hLTtuCUK-SJfxm-clQ0Y-9" style="edgeStyle=orthogonalEdgeStyle;rounded=0;orthogonalLoop=1;jettySize=auto;html=1;entryX=0.5;entryY=0;entryDx=0;entryDy=0;endArrow=none;endFill=0;" edge="1" parent="1" source="vrUg6nh2y9T_X38d_DYT-1" target="hLTtuCUK-SJfxm-clQ0Y-1">
          <mxGeometry relative="1" as="geometry" />
        </mxCell>
        <mxCell id="vrUg6nh2y9T_X38d_DYT-1" value="Democracia 2.0" style="html=1;whiteSpace=wrap;" parent="1" vertex="1">
          <mxGeometry x="410" y="90" width="110" height="60" as="geometry" />
        </mxCell>
        <mxCell id="vrUg6nh2y9T_X38d_DYT-6" style="edgeStyle=orthogonalEdgeStyle;rounded=0;orthogonalLoop=1;jettySize=auto;html=1;startArrow=none;startFill=0;endArrow=none;endFill=0;entryX=0.5;entryY=0;entryDx=0;entryDy=0;" parent="1" source="vrUg6nh2y9T_X38d_DYT-3" target="vrUg6nh2y9T_X38d_DYT-8" edge="1">
          <mxGeometry relative="1" as="geometry">
            <mxPoint x="465" y="330" as="targetPoint" />
            <Array as="points">
              <mxPoint x="465" y="320" />
              <mxPoint x="465" y="320" />
            </Array>
          </mxGeometry>
        </mxCell>
        <mxCell id="vrUg6nh2y9T_X38d_DYT-3" value="Catalogo de&amp;nbsp;&lt;br&gt;Citizens" style="html=1;whiteSpace=wrap;" parent="1" vertex="1">
          <mxGeometry x="410" y="190" width="110" height="50" as="geometry" />
        </mxCell>
        <mxCell id="vrUg6nh2y9T_X38d_DYT-47" style="edgeStyle=orthogonalEdgeStyle;rounded=0;orthogonalLoop=1;jettySize=auto;html=1;entryX=0;entryY=0.25;entryDx=0;entryDy=0;endArrow=none;endFill=0;" parent="1" source="vrUg6nh2y9T_X38d_DYT-4" target="vrUg6nh2y9T_X38d_DYT-43" edge="1">
          <mxGeometry relative="1" as="geometry">
            <Array as="points">
              <mxPoint x="65" y="576" />
            </Array>
          </mxGeometry>
        </mxCell>
        <mxCell id="vrUg6nh2y9T_X38d_DYT-4" value="Catalogo de&amp;nbsp;&lt;br&gt;Bills" style="html=1;whiteSpace=wrap;" parent="1" vertex="1">
          <mxGeometry x="10" y="220" width="110" height="50" as="geometry" />
        </mxCell>
        <mxCell id="hLTtuCUK-SJfxm-clQ0Y-14" style="edgeStyle=orthogonalEdgeStyle;rounded=0;orthogonalLoop=1;jettySize=auto;html=1;entryX=0.5;entryY=0;entryDx=0;entryDy=0;endArrow=none;endFill=0;" edge="1" parent="1" source="vrUg6nh2y9T_X38d_DYT-5" target="vrUg6nh2y9T_X38d_DYT-31">
          <mxGeometry relative="1" as="geometry" />
        </mxCell>
        <mxCell id="vrUg6nh2y9T_X38d_DYT-5" value="Catalogo de Polls" style="whiteSpace=wrap;html=1;" parent="1" vertex="1">
          <mxGeometry x="180" y="200" width="110" height="60" as="geometry" />
        </mxCell>
        <mxCell id="vrUg6nh2y9T_X38d_DYT-55" value="Supports" style="edgeStyle=orthogonalEdgeStyle;rounded=0;orthogonalLoop=1;jettySize=auto;html=1;entryX=1;entryY=0.5;entryDx=0;entryDy=0;endArrow=none;endFill=0;exitX=0.3;exitY=1.162;exitDx=0;exitDy=0;exitPerimeter=0;" parent="1" source="vrUg6nh2y9T_X38d_DYT-10" target="vrUg6nh2y9T_X38d_DYT-44" edge="1">
          <mxGeometry relative="1" as="geometry">
            <mxPoint x="433.6399999999999" y="418.7640000000001" as="sourcePoint" />
            <Array as="points">
              <mxPoint x="434" y="399" />
              <mxPoint x="434" y="569" />
            </Array>
          </mxGeometry>
        </mxCell>
        <mxCell id="vrUg6nh2y9T_X38d_DYT-8" value="Citizen" style="swimlane;fontStyle=0;childLayout=stackLayout;horizontal=1;startSize=26;fillColor=none;horizontalStack=0;resizeParent=1;resizeParentMax=0;resizeLast=0;collapsible=1;marginBottom=0;whiteSpace=wrap;html=1;" parent="1" vertex="1">
          <mxGeometry x="395" y="317" width="140" height="78" as="geometry" />
        </mxCell>
        <mxCell id="vrUg6nh2y9T_X38d_DYT-9" value="+ id: int" style="text;strokeColor=none;fillColor=none;align=left;verticalAlign=top;spacingLeft=4;spacingRight=4;overflow=hidden;rotatable=0;points=[[0,0.5],[1,0.5]];portConstraint=eastwest;whiteSpace=wrap;html=1;" parent="vrUg6nh2y9T_X38d_DYT-8" vertex="1">
          <mxGeometry y="26" width="140" height="26" as="geometry" />
        </mxCell>
        <mxCell id="vrUg6nh2y9T_X38d_DYT-10" value="+ name: String&amp;nbsp;" style="text;strokeColor=none;fillColor=none;align=left;verticalAlign=top;spacingLeft=4;spacingRight=4;overflow=hidden;rotatable=0;points=[[0,0.5],[1,0.5]];portConstraint=eastwest;whiteSpace=wrap;html=1;" parent="vrUg6nh2y9T_X38d_DYT-8" vertex="1">
          <mxGeometry y="52" width="140" height="26" as="geometry" />
        </mxCell>
        <mxCell id="vrUg6nh2y9T_X38d_DYT-12" value="Extends" style="endArrow=block;endSize=16;endFill=0;html=1;rounded=0;exitX=0.375;exitY=-0.029;exitDx=0;exitDy=0;exitPerimeter=0;" parent="1" source="vrUg6nh2y9T_X38d_DYT-13" edge="1">
          <mxGeometry width="160" relative="1" as="geometry">
            <mxPoint x="468" y="490" as="sourcePoint" />
            <mxPoint x="493" y="390" as="targetPoint" />
          </mxGeometry>
        </mxCell>
        <mxCell id="vrUg6nh2y9T_X38d_DYT-51" style="edgeStyle=orthogonalEdgeStyle;rounded=0;orthogonalLoop=1;jettySize=auto;html=1;entryX=1;entryY=0.5;entryDx=0;entryDy=0;endArrow=none;endFill=0;" parent="1" source="vrUg6nh2y9T_X38d_DYT-13" target="vrUg6nh2y9T_X38d_DYT-46" edge="1">
          <mxGeometry relative="1" as="geometry" />
        </mxCell>
        <mxCell id="vrUg6nh2y9T_X38d_DYT-52" value="Proposes" style="edgeLabel;html=1;align=center;verticalAlign=middle;resizable=0;points=[];" parent="vrUg6nh2y9T_X38d_DYT-51" vertex="1" connectable="0">
          <mxGeometry x="-0.002" y="1" relative="1" as="geometry">
            <mxPoint y="-1" as="offset" />
          </mxGeometry>
        </mxCell>
        <mxCell id="vrUg6nh2y9T_X38d_DYT-13" value="Delegado" style="swimlane;fontStyle=0;childLayout=stackLayout;horizontal=1;startSize=26;fillColor=none;horizontalStack=0;resizeParent=1;resizeParentMax=0;resizeLast=0;collapsible=1;marginBottom=0;whiteSpace=wrap;html=1;" parent="1" vertex="1">
          <mxGeometry x="440" y="595" width="140" height="52" as="geometry" />
        </mxCell>
        <mxCell id="vrUg6nh2y9T_X38d_DYT-24" value="&lt;font style=&quot;font-size: 22px;&quot;&gt;&lt;b&gt;*&lt;/b&gt;&lt;/font&gt;" style="text;html=1;align=center;verticalAlign=middle;resizable=0;points=[];autosize=1;strokeColor=none;fillColor=none;" parent="1" vertex="1">
          <mxGeometry x="300" y="541" width="30" height="40" as="geometry" />
        </mxCell>
        <mxCell id="vrUg6nh2y9T_X38d_DYT-27" value="&lt;font style=&quot;font-size: 22px;&quot;&gt;&lt;b&gt;*&lt;/b&gt;&lt;/font&gt;" style="text;html=1;align=center;verticalAlign=middle;resizable=0;points=[];autosize=1;strokeColor=none;fillColor=none;" parent="1" vertex="1">
          <mxGeometry x="533" y="355" width="30" height="40" as="geometry" />
        </mxCell>
        <mxCell id="vrUg6nh2y9T_X38d_DYT-54" value="Creates" style="edgeStyle=orthogonalEdgeStyle;rounded=0;orthogonalLoop=1;jettySize=auto;html=1;entryX=0.5;entryY=0;entryDx=0;entryDy=0;endArrow=none;endFill=0;" parent="1" source="vrUg6nh2y9T_X38d_DYT-31" target="vrUg6nh2y9T_X38d_DYT-43" edge="1">
          <mxGeometry relative="1" as="geometry">
            <Array as="points">
              <mxPoint x="230" y="530" />
            </Array>
          </mxGeometry>
        </mxCell>
        <mxCell id="vrUg6nh2y9T_X38d_DYT-56" style="edgeStyle=orthogonalEdgeStyle;rounded=0;orthogonalLoop=1;jettySize=auto;html=1;endArrow=none;endFill=0;exitX=1;exitY=0.25;exitDx=0;exitDy=0;entryX=0;entryY=0.5;entryDx=0;entryDy=0;" parent="1" source="vrUg6nh2y9T_X38d_DYT-31" edge="1" target="vrUg6nh2y9T_X38d_DYT-8">
          <mxGeometry relative="1" as="geometry">
            <mxPoint x="310" y="386" as="sourcePoint" />
            <mxPoint x="420" y="380" as="targetPoint" />
          </mxGeometry>
        </mxCell>
        <mxCell id="vrUg6nh2y9T_X38d_DYT-57" value="Votes" style="edgeLabel;html=1;align=center;verticalAlign=middle;resizable=0;points=[];" parent="vrUg6nh2y9T_X38d_DYT-56" vertex="1" connectable="0">
          <mxGeometry x="-0.0544" relative="1" as="geometry">
            <mxPoint as="offset" />
          </mxGeometry>
        </mxCell>
        <mxCell id="vrUg6nh2y9T_X38d_DYT-31" value="Poll" style="swimlane;fontStyle=0;childLayout=stackLayout;horizontal=1;startSize=26;fillColor=none;horizontalStack=0;resizeParent=1;resizeParentMax=0;resizeLast=0;collapsible=1;marginBottom=0;whiteSpace=wrap;html=1;" parent="1" vertex="1">
          <mxGeometry x="165" y="340" width="140" height="104" as="geometry" />
        </mxCell>
        <mxCell id="vrUg6nh2y9T_X38d_DYT-32" value="+ prazo: Date" style="text;strokeColor=none;fillColor=none;align=left;verticalAlign=top;spacingLeft=4;spacingRight=4;overflow=hidden;rotatable=0;points=[[0,0.5],[1,0.5]];portConstraint=eastwest;whiteSpace=wrap;html=1;" parent="vrUg6nh2y9T_X38d_DYT-31" vertex="1">
          <mxGeometry y="26" width="140" height="26" as="geometry" />
        </mxCell>
        <mxCell id="vrUg6nh2y9T_X38d_DYT-83" value="+ votes: List" style="text;strokeColor=none;fillColor=none;align=left;verticalAlign=top;spacingLeft=4;spacingRight=4;overflow=hidden;rotatable=0;points=[[0,0.5],[1,0.5]];portConstraint=eastwest;whiteSpace=wrap;html=1;" parent="vrUg6nh2y9T_X38d_DYT-31" vertex="1">
          <mxGeometry y="52" width="140" height="26" as="geometry" />
        </mxCell>
        <mxCell id="vrUg6nh2y9T_X38d_DYT-33" value="+ ongoing: boolean" style="text;strokeColor=none;fillColor=none;align=left;verticalAlign=top;spacingLeft=4;spacingRight=4;overflow=hidden;rotatable=0;points=[[0,0.5],[1,0.5]];portConstraint=eastwest;whiteSpace=wrap;html=1;" parent="vrUg6nh2y9T_X38d_DYT-31" vertex="1">
          <mxGeometry y="78" width="140" height="26" as="geometry" />
        </mxCell>
        <mxCell id="vrUg6nh2y9T_X38d_DYT-37" value="&lt;font style=&quot;font-size: 22px;&quot;&gt;&lt;b&gt;*&lt;/b&gt;&lt;/font&gt;" style="text;html=1;align=center;verticalAlign=middle;resizable=0;points=[];autosize=1;strokeColor=none;fillColor=none;" parent="1" vertex="1">
          <mxGeometry x="770" y="70" width="30" height="40" as="geometry" />
        </mxCell>
        <mxCell id="vrUg6nh2y9T_X38d_DYT-38" value="&lt;font size=&quot;1&quot; style=&quot;&quot;&gt;&lt;b style=&quot;font-size: 16px;&quot;&gt;1&lt;/b&gt;&lt;/font&gt;" style="text;html=1;align=center;verticalAlign=middle;resizable=0;points=[];autosize=1;strokeColor=none;fillColor=none;" parent="1" vertex="1">
          <mxGeometry x="235" y="260" width="30" height="30" as="geometry" />
        </mxCell>
        <mxCell id="vrUg6nh2y9T_X38d_DYT-39" value="&lt;font size=&quot;1&quot; style=&quot;&quot;&gt;&lt;b style=&quot;font-size: 16px;&quot;&gt;1&lt;/b&gt;&lt;/font&gt;" style="text;html=1;align=center;verticalAlign=middle;resizable=0;points=[];autosize=1;strokeColor=none;fillColor=none;" parent="1" vertex="1">
          <mxGeometry x="462" y="240" width="30" height="30" as="geometry" />
        </mxCell>
        <mxCell id="vrUg6nh2y9T_X38d_DYT-40" value="&lt;font style=&quot;font-size: 22px;&quot;&gt;&lt;b&gt;*&lt;/b&gt;&lt;/font&gt;" style="text;html=1;align=center;verticalAlign=middle;resizable=0;points=[];autosize=1;strokeColor=none;fillColor=none;" parent="1" vertex="1">
          <mxGeometry x="464" y="290" width="30" height="40" as="geometry" />
        </mxCell>
        <mxCell id="vrUg6nh2y9T_X38d_DYT-43" value="Bill" style="swimlane;fontStyle=0;childLayout=stackLayout;horizontal=1;startSize=26;fillColor=none;horizontalStack=0;resizeParent=1;resizeParentMax=0;resizeLast=0;collapsible=1;marginBottom=0;whiteSpace=wrap;html=1;" parent="1" vertex="1">
          <mxGeometry x="160" y="530" width="140" height="182" as="geometry" />
        </mxCell>
        <mxCell id="vrUg6nh2y9T_X38d_DYT-44" value="+ title: String" style="text;strokeColor=none;fillColor=none;align=left;verticalAlign=top;spacingLeft=4;spacingRight=4;overflow=hidden;rotatable=0;points=[[0,0.5],[1,0.5]];portConstraint=eastwest;whiteSpace=wrap;html=1;" parent="vrUg6nh2y9T_X38d_DYT-43" vertex="1">
          <mxGeometry y="26" width="140" height="26" as="geometry" />
        </mxCell>
        <mxCell id="vrUg6nh2y9T_X38d_DYT-45" value="+ desc: String&lt;span style=&quot;white-space: pre;&quot;&gt; &lt;/span&gt;" style="text;strokeColor=none;fillColor=none;align=left;verticalAlign=top;spacingLeft=4;spacingRight=4;overflow=hidden;rotatable=0;points=[[0,0.5],[1,0.5]];portConstraint=eastwest;whiteSpace=wrap;html=1;" parent="vrUg6nh2y9T_X38d_DYT-43" vertex="1">
          <mxGeometry y="52" width="140" height="26" as="geometry" />
        </mxCell>
        <mxCell id="vrUg6nh2y9T_X38d_DYT-46" value="+ pdf: File" style="text;strokeColor=none;fillColor=none;align=left;verticalAlign=top;spacingLeft=4;spacingRight=4;overflow=hidden;rotatable=0;points=[[0,0.5],[1,0.5]];portConstraint=eastwest;whiteSpace=wrap;html=1;" parent="vrUg6nh2y9T_X38d_DYT-43" vertex="1">
          <mxGeometry y="78" width="140" height="26" as="geometry" />
        </mxCell>
        <mxCell id="vrUg6nh2y9T_X38d_DYT-48" value="+ valid_date: Date" style="text;strokeColor=none;fillColor=none;align=left;verticalAlign=top;spacingLeft=4;spacingRight=4;overflow=hidden;rotatable=0;points=[[0,0.5],[1,0.5]];portConstraint=eastwest;whiteSpace=wrap;html=1;" parent="vrUg6nh2y9T_X38d_DYT-43" vertex="1">
          <mxGeometry y="104" width="140" height="26" as="geometry" />
        </mxCell>
        <mxCell id="vrUg6nh2y9T_X38d_DYT-49" value="+ approved: Boolean" style="text;strokeColor=none;fillColor=none;align=left;verticalAlign=top;spacingLeft=4;spacingRight=4;overflow=hidden;rotatable=0;points=[[0,0.5],[1,0.5]];portConstraint=eastwest;whiteSpace=wrap;html=1;" parent="vrUg6nh2y9T_X38d_DYT-43" vertex="1">
          <mxGeometry y="130" width="140" height="26" as="geometry" />
        </mxCell>
        <mxCell id="vrUg6nh2y9T_X38d_DYT-50" value="+ apoios : int" style="text;strokeColor=none;fillColor=none;align=left;verticalAlign=top;spacingLeft=4;spacingRight=4;overflow=hidden;rotatable=0;points=[[0,0.5],[1,0.5]];portConstraint=eastwest;whiteSpace=wrap;html=1;" parent="vrUg6nh2y9T_X38d_DYT-43" vertex="1">
          <mxGeometry y="156" width="140" height="26" as="geometry" />
        </mxCell>
        <mxCell id="hLTtuCUK-SJfxm-clQ0Y-15" value="Contains" style="edgeStyle=orthogonalEdgeStyle;rounded=0;orthogonalLoop=1;jettySize=auto;html=1;entryX=1;entryY=0.5;entryDx=0;entryDy=0;endArrow=none;endFill=0;" edge="1" parent="1">
          <mxGeometry relative="1" as="geometry">
            <mxPoint x="660" y="672" as="sourcePoint" />
            <mxPoint x="300" y="672" as="targetPoint" />
          </mxGeometry>
        </mxCell>
        <mxCell id="vrUg6nh2y9T_X38d_DYT-63" value="Theme" style="swimlane;fontStyle=0;childLayout=stackLayout;horizontal=1;startSize=26;fillColor=none;horizontalStack=0;resizeParent=1;resizeParentMax=0;resizeLast=0;collapsible=1;marginBottom=0;whiteSpace=wrap;html=1;" parent="1" vertex="1">
          <mxGeometry x="660" y="634" width="160" height="78" as="geometry" />
        </mxCell>
        <mxCell id="hLTtuCUK-SJfxm-clQ0Y-11" value="+ name: String" style="text;strokeColor=none;fillColor=none;align=left;verticalAlign=top;spacingLeft=4;spacingRight=4;overflow=hidden;rotatable=0;points=[[0,0.5],[1,0.5]];portConstraint=eastwest;whiteSpace=wrap;html=1;" vertex="1" parent="vrUg6nh2y9T_X38d_DYT-63">
          <mxGeometry y="26" width="160" height="26" as="geometry" />
        </mxCell>
        <mxCell id="vrUg6nh2y9T_X38d_DYT-64" value="+ subthemes: Subthemes" style="text;strokeColor=none;fillColor=none;align=left;verticalAlign=top;spacingLeft=4;spacingRight=4;overflow=hidden;rotatable=0;points=[[0,0.5],[1,0.5]];portConstraint=eastwest;whiteSpace=wrap;html=1;" parent="vrUg6nh2y9T_X38d_DYT-63" vertex="1">
          <mxGeometry y="52" width="160" height="26" as="geometry" />
        </mxCell>
        <mxCell id="vrUg6nh2y9T_X38d_DYT-80" style="edgeStyle=orthogonalEdgeStyle;rounded=0;orthogonalLoop=1;jettySize=auto;html=1;entryX=1;entryY=0.5;entryDx=0;entryDy=0;endArrow=none;endFill=0;" parent="1" source="vrUg6nh2y9T_X38d_DYT-79" edge="1">
          <mxGeometry relative="1" as="geometry">
            <mxPoint x="580" y="634" as="targetPoint" />
            <Array as="points">
              <mxPoint x="640" y="634" />
            </Array>
          </mxGeometry>
        </mxCell>
        <mxCell id="vrUg6nh2y9T_X38d_DYT-81" style="edgeStyle=orthogonalEdgeStyle;rounded=0;orthogonalLoop=1;jettySize=auto;html=1;entryX=1;entryY=0.5;entryDx=0;entryDy=0;endArrow=none;endFill=0;" parent="1" source="vrUg6nh2y9T_X38d_DYT-79" target="vrUg6nh2y9T_X38d_DYT-10" edge="1">
          <mxGeometry relative="1" as="geometry" />
        </mxCell>
        <mxCell id="hLTtuCUK-SJfxm-clQ0Y-16" style="edgeStyle=orthogonalEdgeStyle;rounded=0;orthogonalLoop=1;jettySize=auto;html=1;exitX=1;exitY=0.5;exitDx=0;exitDy=0;endArrow=none;endFill=0;entryX=0.5;entryY=0;entryDx=0;entryDy=0;" edge="1" parent="1" source="vrUg6nh2y9T_X38d_DYT-79" target="vrUg6nh2y9T_X38d_DYT-63">
          <mxGeometry relative="1" as="geometry">
            <mxPoint x="720" y="630" as="targetPoint" />
            <Array as="points">
              <mxPoint x="740" y="520" />
            </Array>
          </mxGeometry>
        </mxCell>
        <mxCell id="vrUg6nh2y9T_X38d_DYT-79" value="Represents" style="shape=rhombus;perimeter=rhombusPerimeter;whiteSpace=wrap;html=1;align=center;" parent="1" vertex="1">
          <mxGeometry x="580" y="490" width="120" height="60" as="geometry" />
        </mxCell>
        <mxCell id="vrUg6nh2y9T_X38d_DYT-89" value="Se calhar uma entidade Delegado/Theme nova?" style="text;html=1;align=center;verticalAlign=middle;resizable=0;points=[];autosize=1;strokeColor=none;fillColor=none;" parent="1" vertex="1">
          <mxGeometry x="500" y="860" width="280" height="30" as="geometry" />
        </mxCell>
        <mxCell id="hLTtuCUK-SJfxm-clQ0Y-2" style="edgeStyle=orthogonalEdgeStyle;rounded=0;orthogonalLoop=1;jettySize=auto;html=1;endArrow=none;endFill=0;entryX=0.75;entryY=0;entryDx=0;entryDy=0;" edge="1" parent="1" source="hLTtuCUK-SJfxm-clQ0Y-1" target="vrUg6nh2y9T_X38d_DYT-63">
          <mxGeometry relative="1" as="geometry">
            <mxPoint x="775" y="630" as="targetPoint" />
            <Array as="points">
              <mxPoint x="780" y="410" />
              <mxPoint x="780" y="410" />
            </Array>
          </mxGeometry>
        </mxCell>
        <mxCell id="hLTtuCUK-SJfxm-clQ0Y-1" value="Catalogo de&amp;nbsp;&lt;br&gt;Themes" style="html=1;whiteSpace=wrap;" vertex="1" parent="1">
          <mxGeometry x="720" y="250" width="110" height="50" as="geometry" />
        </mxCell>
        <mxCell id="hLTtuCUK-SJfxm-clQ0Y-3" value="Extends" style="endArrow=block;endSize=16;endFill=0;html=1;rounded=0;exitX=0.5;exitY=0;exitDx=0;exitDy=0;entryX=0.424;entryY=0.93;entryDx=0;entryDy=0;entryPerimeter=0;" edge="1" parent="1" source="hLTtuCUK-SJfxm-clQ0Y-4" target="vrUg6nh2y9T_X38d_DYT-64">
          <mxGeometry width="160" relative="1" as="geometry">
            <mxPoint x="880" y="650" as="sourcePoint" />
            <mxPoint x="840" y="530" as="targetPoint" />
          </mxGeometry>
        </mxCell>
        <mxCell id="hLTtuCUK-SJfxm-clQ0Y-4" value="Subtheme" style="swimlane;fontStyle=0;childLayout=stackLayout;horizontal=1;startSize=26;fillColor=none;horizontalStack=0;resizeParent=1;resizeParentMax=0;resizeLast=0;collapsible=1;marginBottom=0;whiteSpace=wrap;html=1;" vertex="1" parent="1">
          <mxGeometry x="580" y="764" width="140" height="52" as="geometry" />
        </mxCell>
        <mxCell id="hLTtuCUK-SJfxm-clQ0Y-17" value="Bills -&amp;gt; Projeto de Lei&lt;br&gt;" style="text;html=1;align=center;verticalAlign=middle;resizable=0;points=[];autosize=1;strokeColor=none;fillColor=none;" vertex="1" parent="1">
          <mxGeometry x="50" y="755" width="140" height="30" as="geometry" />
        </mxCell>
        <mxCell id="hLTtuCUK-SJfxm-clQ0Y-18" value="Poll -&amp;gt; Votação" style="text;html=1;align=center;verticalAlign=middle;resizable=0;points=[];autosize=1;strokeColor=none;fillColor=none;" vertex="1" parent="1">
          <mxGeometry x="60" y="781" width="100" height="30" as="geometry" />
        </mxCell>
        <mxCell id="hLTtuCUK-SJfxm-clQ0Y-19" value="&lt;font style=&quot;font-size: 22px;&quot;&gt;&lt;b&gt;*&lt;/b&gt;&lt;/font&gt;" style="text;html=1;align=center;verticalAlign=middle;resizable=0;points=[];autosize=1;strokeColor=none;fillColor=none;" vertex="1" parent="1">
          <mxGeometry x="235" y="313" width="30" height="40" as="geometry" />
        </mxCell>
        <mxCell id="hLTtuCUK-SJfxm-clQ0Y-20" value="&lt;font size=&quot;1&quot; style=&quot;&quot;&gt;&lt;b style=&quot;font-size: 16px;&quot;&gt;1&lt;/b&gt;&lt;/font&gt;" style="text;html=1;align=center;verticalAlign=middle;resizable=0;points=[];autosize=1;strokeColor=none;fillColor=none;" vertex="1" parent="1">
          <mxGeometry x="70" y="270" width="30" height="30" as="geometry" />
        </mxCell>
        <mxCell id="hLTtuCUK-SJfxm-clQ0Y-21" value="&lt;font style=&quot;font-size: 22px;&quot;&gt;&lt;b&gt;*&lt;/b&gt;&lt;/font&gt;" style="text;html=1;align=center;verticalAlign=middle;resizable=0;points=[];autosize=1;strokeColor=none;fillColor=none;" vertex="1" parent="1">
          <mxGeometry x="132" y="548" width="30" height="40" as="geometry" />
        </mxCell>
        <mxCell id="hLTtuCUK-SJfxm-clQ0Y-23" value="&lt;font size=&quot;1&quot; style=&quot;&quot;&gt;&lt;b style=&quot;font-size: 16px;&quot;&gt;1&lt;/b&gt;&lt;/font&gt;" style="text;html=1;align=center;verticalAlign=middle;resizable=0;points=[];autosize=1;strokeColor=none;fillColor=none;" vertex="1" parent="1">
          <mxGeometry x="775" y="300" width="30" height="30" as="geometry" />
        </mxCell>
        <mxCell id="hLTtuCUK-SJfxm-clQ0Y-25" value="&lt;font style=&quot;font-size: 22px;&quot;&gt;&lt;b&gt;*&lt;/b&gt;&lt;/font&gt;" style="text;html=1;align=center;verticalAlign=middle;resizable=0;points=[];autosize=1;strokeColor=none;fillColor=none;" vertex="1" parent="1">
          <mxGeometry x="777" y="609" width="30" height="40" as="geometry" />
        </mxCell>
        <mxCell id="hLTtuCUK-SJfxm-clQ0Y-26" value="&lt;font style=&quot;font-size: 22px;&quot;&gt;&lt;b&gt;*&lt;/b&gt;&lt;/font&gt;" style="text;html=1;align=center;verticalAlign=middle;resizable=0;points=[];autosize=1;strokeColor=none;fillColor=none;" vertex="1" parent="1">
          <mxGeometry x="640" y="470" width="30" height="40" as="geometry" />
        </mxCell>
        <mxCell id="hLTtuCUK-SJfxm-clQ0Y-28" value="&lt;font style=&quot;font-size: 22px;&quot;&gt;&lt;b&gt;*&lt;/b&gt;&lt;/font&gt;" style="text;html=1;align=center;verticalAlign=middle;resizable=0;points=[];autosize=1;strokeColor=none;fillColor=none;" vertex="1" parent="1">
          <mxGeometry x="407" y="392" width="30" height="40" as="geometry" />
        </mxCell>
        <mxCell id="hLTtuCUK-SJfxm-clQ0Y-29" value="&lt;font style=&quot;font-size: 22px;&quot;&gt;&lt;b&gt;*&lt;/b&gt;&lt;/font&gt;" style="text;html=1;align=center;verticalAlign=middle;resizable=0;points=[];autosize=1;strokeColor=none;fillColor=none;" vertex="1" parent="1">
          <mxGeometry x="371" y="328" width="30" height="40" as="geometry" />
        </mxCell>
        <mxCell id="hLTtuCUK-SJfxm-clQ0Y-30" value="&lt;font style=&quot;font-size: 22px;&quot;&gt;&lt;b&gt;*&lt;/b&gt;&lt;/font&gt;" style="text;html=1;align=center;verticalAlign=middle;resizable=0;points=[];autosize=1;strokeColor=none;fillColor=none;" vertex="1" parent="1">
          <mxGeometry x="300" y="342" width="30" height="40" as="geometry" />
        </mxCell>
        <mxCell id="hLTtuCUK-SJfxm-clQ0Y-31" value="&lt;font size=&quot;1&quot; style=&quot;&quot;&gt;&lt;b style=&quot;font-size: 16px;&quot;&gt;1&lt;/b&gt;&lt;/font&gt;" style="text;html=1;align=center;verticalAlign=middle;resizable=0;points=[];autosize=1;strokeColor=none;fillColor=none;" vertex="1" parent="1">
          <mxGeometry x="223" y="444" width="30" height="30" as="geometry" />
        </mxCell>
        <mxCell id="hLTtuCUK-SJfxm-clQ0Y-33" value="&lt;font size=&quot;1&quot; style=&quot;&quot;&gt;&lt;b style=&quot;font-size: 16px;&quot;&gt;1&lt;/b&gt;&lt;/font&gt;" style="text;html=1;align=center;verticalAlign=middle;resizable=0;points=[];autosize=1;strokeColor=none;fillColor=none;" vertex="1" parent="1">
          <mxGeometry x="223" y="506" width="30" height="30" as="geometry" />
        </mxCell>
        <mxCell id="hLTtuCUK-SJfxm-clQ0Y-34" value="&lt;font size=&quot;1&quot; style=&quot;&quot;&gt;&lt;b style=&quot;font-size: 16px;&quot;&gt;1&lt;/b&gt;&lt;/font&gt;" style="text;html=1;align=center;verticalAlign=middle;resizable=0;points=[];autosize=1;strokeColor=none;fillColor=none;" vertex="1" parent="1">
          <mxGeometry x="414" y="599" width="30" height="30" as="geometry" />
        </mxCell>
        <mxCell id="hLTtuCUK-SJfxm-clQ0Y-35" value="&lt;font style=&quot;font-size: 22px;&quot;&gt;&lt;b&gt;*&lt;/b&gt;&lt;/font&gt;" style="text;html=1;align=center;verticalAlign=middle;resizable=0;points=[];autosize=1;strokeColor=none;fillColor=none;" vertex="1" parent="1">
          <mxGeometry x="293" y="597" width="30" height="40" as="geometry" />
        </mxCell>
        <mxCell id="hLTtuCUK-SJfxm-clQ0Y-36" value="&lt;font size=&quot;1&quot; style=&quot;&quot;&gt;&lt;b style=&quot;font-size: 16px;&quot;&gt;1&lt;/b&gt;&lt;/font&gt;" style="text;html=1;align=center;verticalAlign=middle;resizable=0;points=[];autosize=1;strokeColor=none;fillColor=none;" vertex="1" parent="1">
          <mxGeometry x="638" y="647" width="30" height="30" as="geometry" />
        </mxCell>
        <mxCell id="hLTtuCUK-SJfxm-clQ0Y-37" value="&lt;font style=&quot;font-size: 22px;&quot;&gt;&lt;b&gt;*&lt;/b&gt;&lt;/font&gt;" style="text;html=1;align=center;verticalAlign=middle;resizable=0;points=[];autosize=1;strokeColor=none;fillColor=none;" vertex="1" parent="1">
          <mxGeometry x="291" y="649" width="30" height="40" as="geometry" />
        </mxCell>
        <mxCell id="hLTtuCUK-SJfxm-clQ0Y-38" value="&lt;font size=&quot;1&quot; style=&quot;&quot;&gt;&lt;b style=&quot;font-size: 16px;&quot;&gt;1&lt;/b&gt;&lt;/font&gt;" style="text;html=1;align=center;verticalAlign=middle;resizable=0;points=[];autosize=1;strokeColor=none;fillColor=none;" vertex="1" parent="1">
          <mxGeometry x="715" y="609" width="30" height="30" as="geometry" />
        </mxCell>
        <mxCell id="hLTtuCUK-SJfxm-clQ0Y-39" value="&lt;font style=&quot;font-size: 22px;&quot;&gt;&lt;b&gt;*&lt;/b&gt;&lt;/font&gt;" style="text;html=1;align=center;verticalAlign=middle;resizable=0;points=[];autosize=1;strokeColor=none;fillColor=none;" vertex="1" parent="1">
          <mxGeometry x="574" y="609" width="30" height="40" as="geometry" />
        </mxCell>
      </root>
    </mxGraphModel>
  </diagram>
</mxfile>
